<svg version="1.2" xmlns="http://www.w3.org/2000/svg" viewBox="0 0 1040 800" width="1040" height="800"><style>.a{fill:#314584}.b{fill:#ff3946}.c{fill:#3d3d49}</style><path fill-rule="evenodd" class="a" d="m1024.7 99.9v609.4c-0.1 41-33.4 74.3-74.5 74.4h-875.7c-41.1-0.1-74.4-33.4-74.5-74.4v-609.4c0.1-41.1 33.4-74.4 74.5-74.4h875.7c41.1 0 74.4 33.3 74.5 74.4zm-29.8 609.4v-470.7c-0.1-24.5-20.2-44.6-44.7-44.6h-875.7c-24.5 0-44.7 20.2-44.7 44.6v470.7c0 24.4 20.2 44.6 44.7 44.6h875.7c24.5 0 44.7-20.2 44.7-44.6zm0.1-609.4c-0.1-24.5-20.3-44.6-44.7-44.7h-875.8c-24.5 0.1-44.6 20.2-44.7 44.7v79.4c12.5-9.4 27.9-15.1 44.7-15.1h875.8c16.7 0 32.2 5.7 44.7 15.1z"/><path class="b" d="m356.6 439.7l83.7-83.8c2.3-2.3 2.3-6.1 0-8.4l-12.6-12.7c-2.3-2.3-6.1-2.3-8.4 0l-100.5 100.5c-2.3 2.4-2.3 6.1 0 8.5l9.5 9.5c0.2 0.2 0.3 0.5 0.5 0.7l100.5 100.5c2.3 2.3 6.1 2.3 8.4 0l12.6-12.6c2.3-2.4 2.3-6.1 0-8.5z"/><path class="b" d="m616.1 342.3c-2.3-2.3-6.1-2.3-8.4 0l-12.6 12.6c-2.3 2.3-2.3 6.1 0 8.4l83.7 83.8-86.4 86.3c-2.3 2.4-2.3 6.1 0 8.5l12.6 12.6c2.4 2.3 6.1 2.3 8.5 0l100.5-100.5c0.1-0.1 0.2-0.3 0.3-0.5l2.3-2.3c2.3-2.3 2.3-6.1 0-8.4z"/><path class="b" d="m557 348l-17.2-4.8c-3.1-0.9-6.4 0.9-7.3 4l-49.1 173.1c-0.9 3.2 0.9 6.5 4.1 7.4l17.1 4.9c3.2 0.9 6.5-1 7.4-4.1l49.1-173.1c0.9-3.2-0.9-6.5-4.1-7.4z"/><path class="c" d="m761.5 92h-54.7c-3.3 0-6 2.7-6 6v17.9c0 3.2 2.7 5.9 6 5.9h54.7c3.3 0 5.9-2.7 5.9-5.9v-17.9c0-3.3-2.6-6-5.9-6z"/><path class="c" d="m848.9 92.1h-54.7c-3.3 0-6 2.6-6 5.9v17.9c0 3.2 2.7 5.9 6 5.9h54.7c3.3 0 5.9-2.7 5.9-5.9v-17.9c0-3.3-2.6-5.9-5.9-5.9z"/><path class="c" d="m936.3 92h-54.7c-3.3 0-5.9 2.7-5.9 6v17.9c0 3.2 2.6 5.9 5.9 5.9h54.7c3.3 0 6-2.7 6-5.9v-17.9c0-3.3-2.7-6-6-6z"/></svg>