<svg version="1.2" xmlns="http://www.w3.org/2000/svg" viewBox="0 0 1340 1322" width="1340" height="1322"><defs><linearGradient id="P" gradientUnits="userSpaceOnUse"/><linearGradient id="g1" x2="1" href="#P" gradientTransform="matrix(18.655,90.379,-52.54,10.845,422.179,604.136)"><stop stop-color="#aff57a"/><stop offset="1" stop-color="#54d169"/></linearGradient><linearGradient id="g2" x2="1" href="#P" gradientTransform="matrix(25.834,94.725,-89.824,24.497,295.228,600.577)"><stop stop-color="#aff57a"/><stop offset="1" stop-color="#54d169"/></linearGradient><linearGradient id="g3" x2="1" href="#P" gradientTransform="matrix(37.095,105.24,-111.714,39.377,331.318,633.483)"><stop stop-color="#aff57a"/><stop offset="1" stop-color="#54d169"/></linearGradient><linearGradient id="g4" x2="1" href="#P" gradientTransform="matrix(18.655,90.378,-52.542,10.845,1352.329,786.766)"><stop stop-color="#aff57a"/><stop offset="1" stop-color="#54d169"/></linearGradient><linearGradient id="g5" x2="1" href="#P" gradientTransform="matrix(25.836,94.732,-89.827,24.498,1225.395,783.205)"><stop stop-color="#aff57a"/><stop offset="1" stop-color="#54d169"/></linearGradient><linearGradient id="g6" x2="1" href="#P" gradientTransform="matrix(37.094,105.236,-111.722,39.38,1261.47,816.116)"><stop stop-color="#aff57a"/><stop offset="1" stop-color="#54d169"/></linearGradient><linearGradient id="g7" x2="1" href="#P" gradientTransform="matrix(-137.184,301.805,-519.925,-236.329,1101.056,1018.253)"><stop stop-color="#15eded"/><stop offset="1" stop-color="#029cf5"/></linearGradient><linearGradient id="g8" x2="1" href="#P" gradientTransform="matrix(-69.123,153.211,-330.183,-148.966,988.775,1098.628)"><stop stop-color="#46eeaa"/><stop offset="1" stop-color="#2cbfc7"/></linearGradient><linearGradient id="g9" x2="1" href="#P" gradientTransform="matrix(-34.476,-123.242,121.3,-33.933,57.326,788.762)"><stop stop-color="#f8a980"/><stop offset="1" stop-color="#ffdf75"/></linearGradient><linearGradient id="g10" x2="1" href="#P" gradientTransform="matrix(-61.214,-193.535,95.578,-30.231,-127.484,1062.87)"><stop stop-color="#f8a980"/><stop offset="1" stop-color="#ffdf75"/></linearGradient><linearGradient id="g11" x2="1" href="#P" gradientTransform="matrix(-61.213,-193.534,95.577,-30.23,-97.033,1072.119)"><stop stop-color="#f8a980"/><stop offset="1" stop-color="#ffdf75"/></linearGradient><linearGradient id="g12" x2="1" href="#P" gradientTransform="matrix(-23.051,1.04,-1.039,-23.035,15.513,741.313)"><stop stop-color="#f8a980"/><stop offset="1" stop-color="#ffdf75"/></linearGradient><linearGradient id="g13" x2="1" href="#P" gradientTransform="matrix(32.377,-0.966,2.412,80.797,-18.757,631.708)"><stop stop-color="#46eeaa"/><stop offset="1" stop-color="#2cbfc7"/></linearGradient><linearGradient id="g14" x2="1" href="#P" gradientTransform="matrix(113.613,260.047,-152.574,66.659,380.004,442.977)"><stop stop-color="#46eeaa"/><stop offset="1" stop-color="#2cbfc7"/></linearGradient><linearGradient id="g15" x2="1" href="#P" gradientTransform="matrix(-3,108.931,-93.269,-2.569,160.653,620.733)"><stop stop-color="#15eded"/><stop offset="1" stop-color="#029cf5"/></linearGradient><linearGradient id="g16" x2="1" href="#P" gradientTransform="matrix(66.17,80.732,-46.764,38.329,137.302,599.89)"><stop stop-color="#46eeaa"/><stop offset="1" stop-color="#2cbfc7"/></linearGradient><linearGradient id="g17" x2="1" href="#P" gradientTransform="matrix(-19.442,-43.71,43.461,-19.331,38.346,656.092)"><stop stop-color="#f8a980"/><stop offset="1" stop-color="#ffdf75"/></linearGradient><linearGradient id="g18" x2="1" href="#P" gradientTransform="matrix(.674,-86.712,62.433,.485,17.281,632.966)"><stop stop-color="#f8a980"/><stop offset="1" stop-color="#ffdf75"/></linearGradient><linearGradient id="g19" x2="1" href="#P" gradientTransform="matrix(25.885,71.453,-69.283,25.099,95.47,531.668)"><stop stop-color="#2c4755"/><stop offset="1" stop-color="#334752"/></linearGradient><linearGradient id="g20" x2="1" href="#P" gradientTransform="matrix(49.316,40.043,-40.923,50.399,29.359,546.54)"><stop stop-color="#ff7c6e"/><stop offset="1" stop-color="#f5317f"/></linearGradient><linearGradient id="g21" x2="1" href="#P" gradientTransform="matrix(9.214,58.967,-16.661,2.603,362.912,550.244)"><stop stop-color="#2c4755"/><stop offset="1" stop-color="#334752"/></linearGradient><linearGradient id="g22" x2="1" href="#P" gradientTransform="matrix(-167.031,442.487,-610.149,-230.321,1063.263,187.263)"><stop stop-color="#15eded"/><stop offset="1" stop-color="#029cf5"/></linearGradient><linearGradient id="g23" x2="1" href="#P" gradientTransform="matrix(-53.763,252.087,-263.285,-56.151,986.664,312.584)"><stop stop-color="#15eded"/><stop offset="1" stop-color="#029cf5"/></linearGradient><linearGradient id="g24" x2="1" href="#P" gradientTransform="matrix(-0.761,176.386,-128.835,-0.556,776.516,554.924)"><stop stop-color="#46eeaa"/><stop offset="1" stop-color="#2cbfc7"/></linearGradient><linearGradient id="g25" x2="1" href="#P" gradientTransform="matrix(39.52,181.64,-115.782,25.191,773.829,617.786)"><stop stop-color="#46eeaa"/><stop offset="1" stop-color="#2cbfc7"/></linearGradient><linearGradient id="g26" x2="1" href="#P" gradientTransform="matrix(-0.761,176.388,-128.837,-0.556,730.861,407.197)"><stop stop-color="#ff7c6e"/><stop offset="1" stop-color="#f5317f"/></linearGradient><linearGradient id="g27" x2="1" href="#P" gradientTransform="matrix(39.52,181.637,-115.78,25.191,728.169,470.063)"><stop stop-color="#ff7c6e"/><stop offset="1" stop-color="#f5317f"/></linearGradient><linearGradient id="g28" x2="1" href="#P" gradientTransform="matrix(-166.759,312.846,-425.94,-227.043,955.887,-28.474)"><stop stop-color="#46eeaa"/><stop offset="1" stop-color="#2cbfc7"/></linearGradient><linearGradient id="g29" x2="1" href="#P" gradientTransform="matrix(-27.8,303.057,-215.077,-19.73,788.713,125.365)"><stop stop-color="#46eeaa"/><stop offset="1" stop-color="#2cbfc7"/></linearGradient><linearGradient id="g30" x2="1" href="#P" gradientTransform="matrix(85.157,-18.375,3.471,16.085,422.485,576.164)"><stop stop-color="#f8a980"/><stop offset="1" stop-color="#ffdf75"/></linearGradient><linearGradient id="g31" x2="1" href="#P" gradientTransform="matrix(42.483,0,0,89.245,428.601,500.213)"><stop stop-color="#aff57a"/><stop offset="1" stop-color="#54d169"/></linearGradient><linearGradient id="g32" x2="1" href="#P" gradientTransform="matrix(38.444,0,0,18.538,443.979,878.17)"><stop stop-color="#334752"/><stop offset="1" stop-color="#6a6d89"/></linearGradient><linearGradient id="g33" x2="1" href="#P" gradientTransform="matrix(295.458,-117.906,181.856,455.711,189.813,586.61)"><stop stop-color="#15eded"/><stop offset="1" stop-color="#029cf5"/></linearGradient><linearGradient id="g34" x2="1" href="#P" gradientTransform="matrix(-18.868,-38.25,30.198,-14.896,465.632,545.101)"><stop stop-color="#f8a980"/><stop offset="1" stop-color="#ffdf75"/></linearGradient><linearGradient id="g35" x2="1" href="#P" gradientTransform="matrix(68.74,-43.918,50.938,79.73,468.37,461.758)"><stop stop-color="#f8a980"/><stop offset="1" stop-color="#ffdf75"/></linearGradient><linearGradient id="g36" x2="1" href="#P" gradientTransform="matrix(-3.996,-21.157,44.875,-8.476,529.795,937.063)"><stop stop-color="#334752"/><stop offset="1" stop-color="#6a6d89"/></linearGradient><linearGradient id="g37" x2="1" href="#P" gradientTransform="matrix(-248.397,-326.727,228.405,-173.647,231.46,1301.942)"><stop stop-color="#15eded"/><stop offset="1" stop-color="#029cf5"/></linearGradient><linearGradient id="g38" x2="1" href="#P" gradientTransform="matrix(49.234,196.937,-124.618,31.154,650.47,428.719)"><stop stop-color="#aff57a"/><stop offset="1" stop-color="#54d169"/></linearGradient><linearGradient id="g39" x2="1" href="#P" gradientTransform="matrix(117.873,-16.52,3.266,23.305,556.39,588.01)"><stop stop-color="#f8a980"/><stop offset="1" stop-color="#ffdf75"/></linearGradient><linearGradient id="g40" x2="1" href="#P" gradientTransform="matrix(-59.179,-98.991,33.509,-20.032,509.209,657.838)"><stop stop-color="#aff57a"/><stop offset="1" stop-color="#54d169"/></linearGradient><linearGradient id="g41" x2="1" href="#P" gradientTransform="matrix(-79.057,-58.328,11.018,-14.933,854.453,898.713)"><stop stop-color="#f8a980"/><stop offset="1" stop-color="#ffdf75"/></linearGradient><linearGradient id="g42" x2="1" href="#P" gradientTransform="matrix(-43.684,-19.672,41.327,-91.773,883.337,817.779)"><stop stop-color="#edf2f6"/><stop offset="1" stop-color="#c3d0d8"/></linearGradient><linearGradient id="g43" x2="1" href="#P" gradientTransform="matrix(-43.354,0,0,-20.908,863.636,1223.704)"><stop stop-color="#334752"/><stop offset="1" stop-color="#6a6d89"/></linearGradient><linearGradient id="g44" x2="1" href="#P" gradientTransform="matrix(-333.208,-132.97,205.087,-513.924,1150.275,894.904)"><stop stop-color="#ffe600"/><stop offset="1" stop-color="#ffc400"/></linearGradient><linearGradient id="g45" x2="1" href="#P" gradientTransform="matrix(21.279,-43.137,34.058,16.8,839.222,848.082)"><stop stop-color="#f8a980"/><stop offset="1" stop-color="#ffdf75"/></linearGradient><linearGradient id="g46" x2="1" href="#P" gradientTransform="matrix(-77.518,-49.525,57.443,-89.91,836.13,754.091)"><stop stop-color="#f8a980"/><stop offset="1" stop-color="#ffdf75"/></linearGradient><linearGradient id="g47" x2="1" href="#P" gradientTransform="matrix(4.506,-23.857,50.612,9.56,766.854,1290.123)"><stop stop-color="#334752"/><stop offset="1" stop-color="#6a6d89"/></linearGradient><linearGradient id="g48" x2="1" href="#P" gradientTransform="matrix(75.266,0,0,309.035,761.699,957.916)"><stop stop-color="#ffe600"/><stop offset="1" stop-color="#ffc400"/></linearGradient><linearGradient id="g49" x2="1" href="#P" gradientTransform="matrix(193.931,231.415,-237.126,198.717,898.334,682.731)"><stop stop-color="#edf2f6"/><stop offset="1" stop-color="#c3d0d8"/></linearGradient><linearGradient id="g50" x2="1" href="#P" gradientTransform="matrix(-44.922,156.039,-26.485,-7.625,751.921,896.458)"><stop stop-color="#f8a980"/><stop offset="1" stop-color="#ffdf75"/></linearGradient><linearGradient id="g51" x2="1" href="#P" gradientTransform="matrix(90.723,147.032,-112.424,69.369,841.771,751.622)"><stop stop-color="#edf2f6"/><stop offset="1" stop-color="#c3d0d8"/></linearGradient><linearGradient id="g52" x2="1" href="#P" gradientTransform="matrix(-15.835,167.712,-264.498,-24.974,599.475,1064.058)"><stop stop-color="#ffdf40"/><stop offset="1" stop-color="#ff8359"/></linearGradient><linearGradient id="g53" x2="1" href="#P" gradientTransform="matrix(-24.394,146.363,-254.782,-42.464,588.888,1146.9)"><stop stop-color="#ffdf40"/><stop offset="1" stop-color="#ff8359"/></linearGradient><linearGradient id="g54" x2="1" href="#P" gradientTransform="matrix(-5.947,159.249,-251.328,-9.386,610.535,1072.525)"><stop stop-color="#aff57a"/><stop offset="1" stop-color="#54d169"/></linearGradient><linearGradient id="g55" x2="1" href="#P" gradientTransform="matrix(-210.36,392.908,-752.042,-402.638,694.744,1030.567)"><stop stop-color="#aff57a"/><stop offset="1" stop-color="#54d169"/></linearGradient><linearGradient id="g56" x2="1" href="#P" gradientTransform="matrix(-30.422,200.371,-324.923,-49.333,629.55,965.428)"><stop stop-color="#15eded"/><stop offset="1" stop-color="#029cf5"/></linearGradient><linearGradient id="g57" x2="1" href="#P" gradientTransform="matrix(-123.372,350.491,-642.681,-226.221,646.829,1015.348)"><stop stop-color="#15eded"/><stop offset="1" stop-color="#029cf5"/></linearGradient><linearGradient id="g58" x2="1" href="#P" gradientTransform="matrix(20.77,124.623,-216.943,36.157,203.587,929.493)"><stop stop-color="#edf2f6"/><stop offset="1" stop-color="#e6e4eb"/></linearGradient><linearGradient id="g59" x2="1" href="#P" gradientTransform="matrix(22.406,129.345,-227.786,39.459,192.711,890.23)"><stop stop-color="#edf2f6"/><stop offset="1" stop-color="#e6e4eb"/></linearGradient><linearGradient id="g60" x2="1" href="#P" gradientTransform="matrix(-11.878,71.269,-124.055,-20.676,97.927,1104.633)"><stop stop-color="#edf2f6"/><stop offset="1" stop-color="#e6e4eb"/></linearGradient><linearGradient id="g61" x2="1" href="#P" gradientTransform="matrix(16.887,95.089,-142.331,25.277,94.49,1038.456)"><stop stop-color="#aff57a"/><stop offset="1" stop-color="#54d169"/></linearGradient><linearGradient id="g62" x2="1" href="#P" gradientTransform="matrix(-23.731,151.33,-265.468,-41.63,110.278,1037.777)"><stop stop-color="#aff57a"/><stop offset="1" stop-color="#54d169"/></linearGradient><linearGradient id="g63" x2="1" href="#P" gradientTransform="matrix(-10.066,60.397,-105.137,-17.523,395.375,1040.724)"><stop stop-color="#edf2f6"/><stop offset="1" stop-color="#e6e4eb"/></linearGradient><linearGradient id="g64" x2="1" href="#P" gradientTransform="matrix(14.31,80.58,-120.622,21.421,392.461,984.645)"><stop stop-color="#59c2ff"/><stop offset="1" stop-color="#1270e3"/></linearGradient><linearGradient id="g65" x2="1" href="#P" gradientTransform="matrix(-20.111,128.247,-224.973,-35.28,405.843,984.068)"><stop stop-color="#59c2ff"/><stop offset="1" stop-color="#1270e3"/></linearGradient></defs><style>.a{fill:#334752}.b{fill:#e6e4eb}.c{fill:#314584}.d{fill:#5767c7}.e{fill:#c7e6ff}.f{fill:#5768c8}.g{fill:#334787}.h{opacity:.1;fill:#334752}.i{fill:#c3d0d8}.j{fill:#edf2f6}.k{opacity:.2;fill:#334752}.l{fill:url(#g1)}.m{fill:url(#g2)}.n{fill:url(#g3)}.o{fill:url(#g4)}.p{fill:url(#g5)}.q{fill:url(#g6)}.r{fill:url(#g7)}.s{fill:#ffe600}.t{fill:url(#g8)}.u{fill:url(#g9)}.v{fill:url(#g10)}.w{fill:#2c4755}.x{fill:url(#g11)}.y{fill:url(#g12)}.z{fill:url(#g13)}.A{fill:url(#g14)}.B{fill:url(#g15)}.C{fill:url(#g16)}.D{fill:url(#g17)}.E{fill:url(#g18)}.F{fill:url(#g19)}.G{fill:url(#g20)}.H{fill:url(#g21)}.I{fill:#6a6d89}.J{fill:url(#g22)}.K{fill:url(#g23)}.L{fill:url(#g24)}.M{fill:url(#g25)}.N{fill:url(#g26)}.O{fill:url(#g27)}.P{fill:url(#g28)}.Q{fill:url(#g29)}.R{fill:#fff}.S{fill:url(#g30)}.T{fill:url(#g31)}.U{fill:url(#g32)}.V{fill:#131316}.W{fill:url(#g33)}.X{fill:url(#g34)}.Y{fill:url(#g35)}.Z{fill:url(#g36)}.a0{fill:url(#g37)}.a1{fill:url(#g38)}.a2{fill:url(#g39)}.a3{fill:url(#g40)}.a4{fill:url(#g41)}.a5{fill:url(#g42)}.a6{fill:url(#g43)}.a7{fill:url(#g44)}.a8{fill:url(#g45)}.a9{fill:url(#g46)}.aa{fill:url(#g47)}.ab{fill:url(#g48)}.ac{fill:url(#g49)}.ad{fill:#6a3c20}.ae{fill:url(#g50)}.af{fill:url(#g51)}.ag{fill:url(#g52)}.ah{fill:url(#g53)}.ai{fill:url(#g54)}.aj{fill:url(#g55)}.ak{fill:url(#g56)}.al{fill:url(#g57)}.am{fill:url(#g58)}.an{fill:url(#g59)}.ao{fill:url(#g60)}.ap{fill:url(#g61)}.aq{fill:url(#g62)}.ar{fill:url(#g63)}.as{fill:url(#g64)}.at{fill:url(#g65)}</style><g style="opacity:.1"><path class="a" d="m1019.4 511.5c-27.4-15.6-71.7-14.9-98.6 1.7l-367.8 227.2c-26.8 16.6-26.4 43 1 58.7l308.8 176.9c27.3 15.7 71.7 15 98.6-1.6l367.7-227.2c26.9-16.6 26.5-43-0.9-58.7z"/></g><path class="b" d="m917.6 190.3l-325.6-187.4c-3.9-2.3-7.5-3-10.5-2.3-7.4 1-16.7 6.8-27.5 12.5q0 0-0.1 0.1c-3.4 1.9-5.6 6.1-5.6 12.1v733.4c0 11.8 8.4 26.3 18.6 32.2l325.7 187.4c3.4 2 6.6 2.7 9.3 2.5 5.1-0.2 11.4-2.3 19.4-6.2 6.8-3.7 10.1-6.5 11.7-8.4q0.1-0.2 0.3-0.4 0 0 0-0.1c1.9-2.2 3-5.5 3-9.8v-733.4c0-11.8-8.4-26.3-18.7-32.2z"/><path class="c" d="m911.2 234.1c0-11.8-8.4-26.3-18.6-32.2l-325.7-187.4c-10.2-5.9-18.6-1.1-18.6 10.8v733.4c0 11.8 8.4 26.3 18.6 32.2l325.7 187.4c10.2 5.9 18.6 1.1 18.6-10.7z"/><path class="d" d="m703.3 822.9c-4-2.3-7.2-0.4-7.2 4.1v15.1c0 4.5 3.2 10.1 7.2 12.4l38.5 22.1c3.9 2.3 7.1 0.4 7.1-4.1v-15.1c0-4.5-3.2-10.1-7.1-12.3z"/><path class="e" d="m566.5 68c-4.3-2.5-7.8-0.5-7.8 4.5v642.8c0 4.9 3.5 10.9 7.8 13.4l324.7 186.9c4.2 2.4 7.7 0.4 7.7-4.5v-642.8c0-5-3.5-11-7.7-13.5z"/><path class="f" d="m685.5 102.1c-2.9-1.7-5.2-0.3-5.2 3v5.3c0 3.3 2.3 7.4 5.2 9.1l91.3 52.5c2.9 1.7 5.2 0.3 5.2-3.1v-5.2c0-3.4-2.3-7.5-5.2-9.1z"/><path class="g" d="m915.4 535.6c0 4.3 2.9 6 6.6 3.7l2.8-1.7c3.7-2.3 6.7-7.6 6.7-11.9v-30.6c0-4.3-3-6-6.7-3.7l-2.8 1.7c-3.7 2.3-6.6 7.6-6.6 11.9z"/><path class="g" d="m711.9 76.7c-3.5-2-9-1.9-12.4 0.2l-0.6 0.4c-3.4 2-3.4 5.4 0.1 7.3l73.1 42.1c3.5 2 9.1 1.9 12.4-0.2l0.6-0.3c3.4-2.1 3.4-5.4-0.1-7.4z"/><path class="g" d="m915.4 439c0 4.3 2.9 6 6.6 3.7l2.8-1.7c3.7-2.3 6.7-7.6 6.7-11.9v-122.5c0-4.3-3-6-6.7-3.7l-2.8 1.7c-3.7 2.3-6.6 7.6-6.6 11.9z"/><path class="f" d="m578.1 60.2c3.8 5.9 10.1 8.5 14.1 5.9 4-2.6 4.1-9.4 0.3-15.2-3.8-5.9-10.1-8.5-14.1-5.9-4 2.6-4.1 9.4-0.3 15.2z"/><path class="f" d="m601.6 72.4c1 1.5 2.6 2.2 3.6 1.5 1-0.6 1.1-2.4 0.1-3.9-1-1.5-2.6-2.2-3.6-1.5-1 0.7-1.1 2.4-0.1 3.9z"/><path class="f" d="m878.3 231.5c1.5 2.2 3.8 3.2 5.4 2.2 1.5-1 1.5-3.6 0.1-5.8-1.5-2.2-3.8-3.2-5.3-2.2-1.6 1-1.6 3.5-0.2 5.8z"/><path class="h" d="m325.1 774.4c0 17.8-24.8 32.3-55.5 32.3-30.6 0-55.5-14.5-55.5-32.3 0-17.8 24.9-32.2 55.5-32.2 30.7 0 55.5 14.4 55.5 32.2z"/><path class="i" d="m320.9 716.8l-24.5-2-17.5-1.6-35.9 1.1-22.8 1.6-3.7 2.5 6.4 52.7q0 0 0 0c0 14.7 20.5 26.6 45.8 26.6 24.6 0 44.6-11.2 45.8-25.2 0 0 0-0.1 0-0.1z"/><path class="j" d="m320.9 717.8c0 15.1-23.3 27.3-52.2 27.3-28.8 0-52.2-12.2-52.2-27.3 0-15.2 23.4-27.4 52.2-27.4 28.9 0 52.2 12.2 52.2 27.4z"/><path class="k" d="m302.8 717.8c0 9.8-15.3 17.8-34.1 17.8-18.8 0-34-8-34-17.8 0-9.9 15.2-17.9 34-17.9 18.8 0 34.1 8 34.1 17.9z"/><path class="l" d="m299.1 627.4c-0.3-16.5-13.8-29.8-30.4-29.8-16.6 0-30 13.3-30.4 29.8v90.1q0 0.1 0 0.3c0 8.8 13.6 15.9 30.4 15.9 16.8 0 30.5-7.1 30.5-15.9q0-0.2-0.1-0.3h0.1v-90.1z"/><path class="m" d="m268.7 597.6c-16.6 0-30 13.3-30.4 29.8v0.7c3.1 2.1 7.1 3.7 12.5 6 18.5 7.7 28.6 0 37.6 8 3.7 3.4 7.5 7.3 10.8 11.5v-26.2h-0.1c-0.3-16.5-13.8-29.8-30.4-29.8z"/><path class="n" d="m299.2 717.8q0-0.2-0.1-0.3h0.1v-73.6c-2.1 9.1-5.7 17.7-19.2 21.5-24.1 6.9-25.6 23-41.1 33.4q-0.3 0.2-0.6 0.4v18.3q0 0.1 0 0.3c0 8.8 13.6 15.9 30.4 15.9 16.8 0 30.5-7.1 30.5-15.9z"/><path class="h" d="m1255.3 957.1c0 17.8-24.9 32.2-55.5 32.2-30.7 0-55.5-14.4-55.5-32.2 0-17.9 24.8-32.3 55.5-32.3 30.6 0 55.5 14.4 55.5 32.3z"/><path class="i" d="m1251.1 899.4l-24.5-2-17.5-1.6-35.9 1.2-22.8 1.5-3.7 2.5 6.4 52.7q0 0 0 0.1c0 14.7 20.5 26.6 45.8 26.6 24.5 0 44.5-11.2 45.7-25.3 0.1 0 0.1-0.1 0.1-0.1z"/><path class="j" d="m1251.1 900.4c0 15.1-23.4 27.4-52.2 27.4-28.8 0-52.2-12.3-52.2-27.4 0-15.1 23.4-27.4 52.2-27.4 28.8 0 52.2 12.3 52.2 27.4z"/><path class="k" d="m1232.9 900.4c0 9.8-15.2 17.8-34 17.8-18.8 0-34-8-34-17.8 0-9.9 15.2-17.9 34-17.9 18.8 0 34 8 34 17.9z"/><path class="o" d="m1229.3 810c-0.4-16.5-13.8-29.7-30.4-29.7-16.6 0-30 13.2-30.4 29.7v90.2q0 0.1 0 0.2c0 8.8 13.6 16 30.4 16 16.8 0 30.4-7.2 30.4-16q0-0.1 0-0.2v-90.2z"/><path class="p" d="m1198.9 780.3c-16.6 0-30 13.2-30.4 29.7v0.7c3.1 2.1 7 3.7 12.5 6 18.5 7.7 28.6 0 37.6 8 3.7 3.4 7.4 7.4 10.7 11.5v-26.2c-0.4-16.5-13.8-29.7-30.4-29.7z"/><path class="q" d="m1229.3 900.4q0-0.1 0-0.2v-73.7c-2 9.1-5.7 17.7-19.1 21.5-24.2 6.9-25.7 23-41.2 33.4q-0.3 0.2-0.5 0.4v18.4q0 0.1 0 0.2c0 8.8 13.6 16 30.4 16 16.8 0 30.4-7.2 30.4-16z"/><path class="h" d="m1070.8 1077.3l-67.7-38.8q-0.6-0.3-1.2-0.6l-65.4-37.5c-6-3.4-15.7-3.3-21.6 0.4l-80.6 49.7c-5.9 3.7-5.8 9.5 0.2 12.9l67.7 38.8q0.5 0.3 1.2 0.6l65.4 37.5c6 3.4 15.7 3.3 21.6-0.4l80.6-49.8c5.9-3.6 5.8-9.4-0.2-12.8z"/><path class="b" d="m990.8 1024.1c0-4.2-3-9.4-6.6-11.5l-137.6-79.2c-1.5-0.8-2.8-1.1-4-0.7-3.6 0.7-8.5 4.3-8.5 4.3-1.2 0.8-1.8 2.2-1.8 4.3v107.6c0 4.2 2.9 9.4 6.6 11.5l137.6 79.2c1.2 0.7 2.3 0.9 3.3 0.8 1.1 0 2.6-0.3 4.4-1.4 3.4-2 5-2.8 5.7-4 0.6-0.8 0.9-1.9 0.9-3.3z"/><path class="r" d="m983.1 1028.1c0-4.2-3-9.4-6.6-11.5l-137.6-79.2c-3.7-2.1-6.7-0.4-6.7 3.9v107.6c0 4.2 3 9.4 6.7 11.5l137.6 79.2c3.6 2.1 6.6 0.3 6.6-3.9z"/><path class="s" d="m926 1071.3c7.8 12 20.7 17.4 28.9 12.1 8.1-5.3 8.4-19.3 0.6-31.3-7.7-12-20.7-17.4-28.8-12.1-8.2 5.3-8.5 19.3-0.7 31.3z"/><path class="t" d="m983.1 1135.7v-17.4l-30.6-17.3-28.8-49.2-14.9 11.7-30.2-60.1c0 0-32.2 20.2-46.4 28.8v16.7c0 4.2 3 9.4 6.7 11.5l137.6 79.2c3.6 2.1 6.6 0.3 6.6-3.9z"/><g style="opacity:.1"><path class="a" d="m73.1 1026.8l34.6-21.3c4.4-2.7 4.4-6.9 0.3-9.5l-63.5-36.5c-4.5-2.7-11.9-2.5-16.4 0.2l-34.6 21.3c-4.3 2.7-4.4 6.9-0.3 9.5l63.5 36.5c4.5 2.6 11.9 2.5 16.4-0.2z"/></g><path class="u" d="m131.6 675c-2.4 7.7-7.6 26-13.3 37-5.4 10.4-13.5 22.1-16.3 21.9-2.4-0.4-0.6-1.2-3.2-0.8-2.5 0.4-13.1 8.6-10.5 10.5 0 0.1 0 0.3 0 0.3 0 0 5.5 5.4 13.2 7.1q0.6 0.3 1.3 0.3c0.7 0 1.4-0.3 2-0.8 3.4-1.6 23-12.6 30.7-50.2 0.2-0.6 2.9-15.3 4.2-31.1 0-2.4-5.8-1.9-8.1 5.8z"/><path class="v" d="m25 883.7c0.2 0.6 1.8 18-3.3 50.3-5 32.2-5.2 33.5-5.8 39.7-0.2 4.2 7.2 8.5 13.5 10.5 6.2 2 19.3 3.2 25.1-2.8 2.3-4.1-1.1-6.3-1.1-6.3 0 0-5.7 0.6-8.3 0.6-1.9-0.1-8.4-0.6-7.7-3.6 0.7-3 7.3-38.5 8.9-57.2 1.5-18.7 2.5-38.3 2.5-38.3l-4-9.2-24.2-3.1z"/><path class="w" d="m61.9 976.3c-3.9-2-8.9-1.6-8.9-1.6 0 0-2.2 0.3 0.6 2.1 1.6 0.7 2.3 6.1-6.8 7.5-7.8 1.2-9.9 1-13.9-0.1q-0.1 0-0.3-0.1c-15.5-4.4-15.1-15.3-16.8-13.4-2.1 2.3-4.4 4.3-4.4 9.6 0 2.6 0.4 5.7 1.6 7.8 1.9 4.1 2.9 10.1 2.9 10.1v5.4c0 1.2 0.9 1.7 2.1 1.7 1.3 0 2.5-0.5 2.5-1.7v-6.9c0.3-3.6 1.5-6.2 1.5-6.2 0 0 1.5-3.1 3.5-0.1 2 3 4.9 7.7 11.7 7.7 6.7 0.1 11.3-2.3 19.2-8 7.9-5.7 9.3-11.9 5.5-13.8z"/><path class="x" d="m55.5 892.9c0.1 0.6 1.8 18.1-3.3 50.3-5.1 32.3-5.2 33.5-5.8 39.8-0.3 4.1 7.1 8.4 13.4 10.4 6.3 2.1 19.4 3.3 25.2-2.8 2.2-4.1-1.1-6.2-1.1-6.2 0 0-5.8 0.6-8.3 0.5-2-0.1-8.5-0.5-7.7-3.5 0.7-3.1 7.2-38.5 8.8-57.2 1.6-18.7 2.6-38.3 2.6-38.3l-4.1-9.3-24.1-3z"/><path class="w" d="m92.3 985.5c-3.9-2-8.8-1.6-8.8-1.6 0 0-2.3 0.4 0.5 2.2 1.6 0.6 2.4 6.1-6.7 7.5-7.8 1.2-10 0.9-14-0.2q-0.1 0-0.2 0c-15.6-4.5-15.2-15.3-16.9-13.5-2.1 2.3-4.3 4.3-4.3 9.7 0 2.5 0.4 5.6 1.6 7.7 1.8 4.1 2.8 10.1 2.9 10.2v5.3c0 1.3 0.8 1.8 2.1 1.8 1.2 0 2.4-0.5 2.4-1.8v-6.9c0.3-3.6 1.6-6.1 1.6-6.1 0 0 1.5-3.1 3.4-0.2 2.1 3.1 5 7.8 11.7 7.8 6.8 0 11.4-2.4 19.3-8.1 7.9-5.7 9.3-11.8 5.4-13.8z"/><path class="y" d="m25.3 727.4c0 7.4 15.4 13.3-12.6 13.3-6.9 0-11.5-6-12.9-13.3-4.9-25.2 6-13.3 12.9-13.3 7 0 12.6 6 12.6 13.3z"/><path class="z" d="m28.2 691.4c0-2.1-7.8-29.6-7.8-30 0-0.4-2.9-6.5-4.3-9.7 1.3-7.2 16.9-22.9-2.8-15.9-7.3 2.6-9.6 6.4-11.7 14.5-1 3.8-1.2 7.4-0.7 10.2 0.4 2.3 0.4 18.7-2.3 32-2.8 13.9-4.6 25.1 0.6 28.3 5.2 3.1 11.8 2.8 16.6 2.3 4.7-0.4 15.9-5.2 15.9-5.2 0 0-3.5-24.5-3.5-26.5z"/><path class="A" d="m81.9 746c-5.1-8.2-5.1-8.1-5.1-13 0-4.9 0.3-20.8 1.9-34.2 1.7-13.4 6.3-17.3 5.4-27.1-0.9-9.9 0-18.5-17.7-26.2-8-2-27.8-10.5-34.8-11.2-1.9-0.5-3.9-0.8-6.1-0.8-8.8 0-16.2 4.9-17.9 11.4-4.1 10.3-0.5 25 0.6 42.6 1.1 18.4 9.3 42.9 9.7 45 0.5 2 1.6 4.1-0.3 6.3-8.4 9.9-10.4 23.9-10.4 23.9q0 0 0 0.4c-0.4 2.4-0.7 4.9-0.7 7.5q0 2.2 0.2 4.2c0 4.7 1.8 8.6 6.2 23.1 5.1 24.9 1.7 80.4 1.7 80.4 0 8.4 15.9 15.3 35.6 15.3 19.6 0 35.6-6.9 35.6-15.3 0 0 0.4-80 0.9-91.4 0.4-11.5 0.2-32.7-4.8-40.9z"/><path class="w" d="m123.5 710.1c-1 2.8-4.2 4.1-6.9 3.1l-49.6-19.4c-2.7-1.1-4.1-4.2-3-6.9l26.9-69.1c1.1-2.7 4.2-4.1 6.9-3l49.6 19.3c2.8 1.1 4.1 4.2 3.1 7z"/><path class="B" d="m118.5 708.2l-49.5-19.4 26.9-69 49.6 19.3-27 69.1q0 0 0 0z"/><path class="C" d="m97.9 725.7c0 0-2.9-6.3-7.6-16.1-4.8-10-9.2-20.1-7.6-26.5 1-4.5 1.4-9.9 1.5-12.7q0.1-1 0.1-2c0-10.4-6.6-18.9-14.7-18.9-7.7 0-14 7.7-14.5 17.5q-0.1 0-0.1 0.1c-1.5 14.1 8.4 36.8 11.7 42.5 3.4 5.8 11.1 23.3 12.6 27 1.6 3.6 6.6 8.3 10.2 9.1 3.6 0.7 9.3-7.5 11.4-10.5 1.4-2-3-9.5-3-9.5z"/><path class="D" d="m59.9 625.8l-1-1.5-4.8-4.6-9.9-0.5-7.8 1.7c0 0 1 2.2 0.6 7.5-0.7 5.4-1.4 7.6-1.8 8.4q-0.4 0.5-0.5 1.1c-0.5 2.8 3.8 6 9.7 7.1 5.9 1.2 11.1-0.2 11.7-3q0-0.4 0-0.8c0.1-0.8 0.2-2.2 0.2-4.3 0.4-6.6 3.6-11.1 3.6-11.1z"/><path class="E" d="m86.9 575.6c0.3 2.8 0.4 13.8 0.4 16.8 0 17.3-5 30.3-13.6 32.6-27.4 7.3-34-6.9-34-24.2 0-17.3 31.5-39.7 37.2-39.7 4.7 0 8.7 1.4 10 14.5z"/><path class="F" d="m87.7 570.4c0 1.5-0.1 6.7-1.7 6.6-6.8-0.1-11.9 3-9.9 11.3 1.4 5.7-0.2 15.9-7.1 31-1.9 4.2 2.6 11-0.4 11-1 0-3.5-1.2-3.5-7.3-0.1-8 3.9-14 4.4-16 4.5-16.3-8-14.2-9.9-11.4-2.5 3.9-6.9 9 0.4 16.1 6.1 5.8-10.6 14.1-15.3 12.8-12.7-3.5-13 2.7-15.2 5.6-11.5 14.7-9.4-48.4-9.4-59.7 0-11.3 12.7-19.3 31.3-19.3 18.7 0 36.3 8 36.3 19.3z"/><path class="G" d="m43.8 576.1c0 8.3-6.1 15.1-13.6 15.1-7.5 0-13.6-6.8-13.6-15.1 0-8.4 6.1-15.2 13.6-15.2 7.5 0 13.6 6.8 13.6 15.2z"/><path class="H" d="m36.8 601.7c2.3-18.2 2.4-21.1 1.8-24q0-0.1 0-0.1c-0.7-6.1-5.3-10.9-10.9-10.9-5.6 0-8.6 5-11 10.8 0 0-12.9 30-10.2 59.5 2.7 29.6 2.3 31.2 17 57 6 12.4 6.6 13.6 6.3 18.4-0.3 4.8 3.6 7.3 4.3-2.6 0.8-9.8 1.5-22-5.2-42-3.9-12-3-22.9-0.7-31.8 2.2-9 5.3-16.7 8.6-34.3z"/><g style="opacity:.1"><path class="a" d="m801.1 511.6c-5.1-3-9.3-0.5-9.3 5.4v239.7c0 5.9 4.2 13.2 9.3 16.1l85.3 49.1c5.1 2.9 9.3 0.5 9.3-5.4v-239.8c0-5.9-4.2-13.1-9.3-16.1z"/></g><path class="b" d="m870 572l-85.3-49c-2.6-1.5-4.9-1.6-6.6-0.6-8.3 3.4-11.9 5.5-13.2 6.4-1.8 0.9-2.9 3-2.9 6.1v239.7c0 5.9 4.2 13.2 9.3 16.1l85.2 49.1c1.4 0.7 2.6 1.1 3.8 1.2 0.6 0.1 4.1 0.3 10.2-3.4 3.2-2 4.9-3.1 5.7-3.5q0.4-0.2 0.7-0.4 0-0.1 0-0.1c1.5-1 2.4-3 2.4-5.7v-239.8c0-5.9-4.2-13.1-9.3-16.1z"/><path class="j" d="m771.3 529.5c-5.1-3-9.3-0.5-9.3 5.4v239.7c0 5.9 4.2 13.2 9.3 16.1l85.2 49.1c5.2 2.9 9.3 0.5 9.3-5.4v-239.8c0-5.9-4.1-13.1-9.3-16.1z"/><path class="I" d="m788.5 599.9l39 22.4v-19.3l-39-22.4z"/><path class="I" d="m851.5 687.2v-19.3l-67-38.5v19.2z"/><path class="I" d="m832.9 684.2l-59.7-34.4v19.3l59.7 34.4z"/><path class="I" d="m784.5 702.6l67 38.6v-19.3l-67-38.5z"/><path class="I" d="m773.2 723.1l78.3 45.1v-19.3l-78.3-45z"/><path class="I" d="m773.2 730.9v19.2l38.6 22.3v-19.3z"/><g style="opacity:.1"><path class="a" d="m608.1 162.4c-5.2-2.9-9.4-0.5-9.4 5.4v239.7c0 5.9 4.2 13.2 9.4 16.1l85.2 49.1c5.1 2.9 9.3 0.5 9.3-5.4v-239.7c0-5.9-4.2-13.2-9.3-16.1z"/></g><path class="b" d="m676.9 222.9l-85.3-49.1c-2.5-1.5-4.9-1.6-6.6-0.6-8.3 3.4-11.9 5.6-13.2 6.4-1.8 1-2.9 3.1-2.9 6.1v239.7c0 6 4.2 13.2 9.3 16.1l85.2 49.1c1.4 0.8 2.6 1.2 3.8 1.2 0.7 0.1 4.1 0.4 10.2-3.4 3.3-2 4.9-3 5.7-3.5q0.4-0.2 0.7-0.4 0.1 0 0 0 0.1 0 0.1 0c1.4-1.1 2.3-3.1 2.3-5.8v-239.7c0-5.9-4.2-13.2-9.3-16.1z"/><path class="j" d="m578.2 180.3c-5.1-2.9-9.3-0.5-9.3 5.4v239.7c0 6 4.2 13.2 9.3 16.1l85.2 49.1c5.2 2.9 9.4 0.5 9.4-5.4v-239.7c0-5.9-4.2-13.2-9.4-16.1z"/><path class="I" d="m595.5 250.7l38.9 22.4v-19.3l-38.9-22.4z"/><path class="I" d="m658.4 338v-19.2l-67-38.6v19.3z"/><path class="I" d="m639.8 335l-59.7-34.3v19.2l59.7 34.4z"/><path class="I" d="m591.4 353.5l67 38.5v-19.2l-67-38.6z"/><path class="I" d="m580.1 374l78.3 45v-19.2l-78.3-45.1z"/><path class="I" d="m580.1 381.7v19.3l38.6 22.2v-19.3z"/><path class="h" d="m890.4 460.1c0.2 0 0.4 0.1 0.5 0.1q0.4 0 0.8-0.1 0.2 0 0.3 0 0.4-0.1 0.7-0.2c1.3-0.6 2.2-2.1 2.2-4.3v-128.2c0-4.1-2.9-9.1-6.4-11.1l-145-83.5c-2.1-1.2-4-1.1-5.2 0q-0.1 0.2-0.3 0.4-0.2 0.2-0.3 0.4-0.1 0.2-0.2 0.5-0.2 0.3-0.3 0.7 0 0.2-0.1 0.4-0.1 0.6-0.1 1.3v128.2c0 4.1 2.9 9.1 6.5 11.2l79.2 45.6h0.1l39.9 23 12.5 7.2 0.5 0.3 12.8 7.3q0.6 0.4 1.3 0.6c0.2 0.1 0.4 0.1 0.6 0.2z"/><path class="J" d="m870.8 327.3l-145-83.5c-1.4-0.8-2.7-1-3.7-0.7-0.5 0-1.4 0.5-6.4 2.6-3.9 1.7-5.6 3-6.4 3.6-1 0.8-1.5 2.1-1.5 4v128.1c0 4.1 2.9 9.1 6.4 11.2l122 70.2 10.3 5.9 12.7 7.3c1.8 1 3.3 1.1 4.5 0.5 0.8-0.2 2-0.6 4.2-1.4 4.1-1.4 6.5-3.3 7.6-4.4 1.1-0.7 1.8-2.1 1.8-4.1v-128.1c0-4.1-2.9-9.2-6.5-11.2z"/><path class="K" d="m861.2 476.8c0.1 0 0.3 0.1 0.5 0.1q0.4 0 0.7 0 0.2 0 0.4-0.1c0.2 0 0.4-0.1 0.6-0.2 1.4-0.6 2.3-2 2.3-4.3v-128.2c0-4-2.9-9.1-6.5-11.1l-145-83.5c-2.1-1.2-3.9-1.1-5.1 0q-0.2 0.2-0.3 0.4-0.2 0.2-0.3 0.5-0.2 0.2-0.3 0.4-0.1 0.3-0.2 0.7-0.1 0.2-0.1 0.4-0.1 0.6-0.1 1.4v128.1c0 4.1 2.9 9.1 6.4 11.2l79.3 45.6 39.9 23 12.6 7.2 0.5 0.3 12.7 7.3q0.7 0.4 1.3 0.6c0.2 0.1 0.5 0.1 0.7 0.2z"/><path class="s" d="m805.8 392.8c10.8 16.8 28.9 24.3 40.4 16.9 11.4-7.4 11.8-27 0.9-43.8-10.9-16.7-28.9-24.3-40.4-16.9-11.4 7.4-11.8 27-0.9 43.8z"/><path class="I" d="m856.9 443.4l-40.3-69-20.9 16.4-42.3-84.1c0 0-24.8 15.5-45.6 28.4v46.3c0 4.1 2.9 9.1 6.4 11.2l79.3 45.6 39.9 23 12.6 7.2 0.5 0.3 12.7 7.3q0.7 0.4 1.3 0.6c0.2 0.1 0.5 0.1 0.7 0.2 0.1 0 0.3 0.1 0.5 0.1q0.4 0 0.7 0 0.2 0 0.4-0.1c0.2 0 0.4-0.1 0.6-0.2 1.4-0.6 2.3-2 2.3-4.3v-24z"/><path class="h" d="m735.4 753.2q0.2 0 0.3 0.1 0.3 0 0.5-0.1 0.1 0 0.2 0 0.2 0 0.4-0.1c0.9-0.4 1.5-1.3 1.5-2.7v-81.2c0-2.6-1.9-5.8-4.1-7.1l-91.9-52.8c-1.3-0.8-2.5-0.7-3.2 0q-0.1 0.1-0.2 0.2-0.1 0.1-0.2 0.3-0.1 0.1-0.2 0.3 0 0.2-0.1 0.4 0 0.1-0.1 0.3-0.1 0.4-0.1 0.8v81.2c0 2.6 1.9 5.8 4.1 7.1l50.2 28.9 25.3 14.5 8 4.6 0.3 0.2 8.1 4.6q0.4 0.3 0.8 0.4 0.2 0.1 0.4 0.1z"/><path class="L" d="m723 669.1l-91.9-52.9c-0.8-0.5-1.6-0.6-2.3-0.4-0.3 0-0.9 0.3-4 1.7-2.5 1-3.6 1.8-4.1 2.2-0.6 0.5-1 1.3-1 2.5v81.2c0 2.6 1.9 5.7 4.1 7l77.2 44.5 6.6 3.7 8.1 4.7c1 0.6 2 0.7 2.8 0.3 0.5-0.1 1.3-0.4 2.6-0.9 2.6-0.9 4.1-2.1 4.9-2.8 0.7-0.5 1.1-1.3 1.1-2.6v-81.1c0-2.6-1.9-5.8-4.1-7.1z"/><path class="M" d="m716.9 763.8q0.1 0 0.3 0 0.2 0.1 0.5 0 0.1 0 0.2 0 0.2 0 0.4-0.1c0.9-0.4 1.4-1.3 1.4-2.8v-81.1c0-2.6-1.8-5.8-4-7.1l-91.9-52.8c-1.3-0.8-2.5-0.7-3.2 0q-0.1 0.1-0.2 0.2-0.1 0.1-0.2 0.3-0.1 0.1-0.2 0.2-0.1 0.3-0.1 0.5-0.1 0.1-0.1 0.3-0.1 0.3-0.1 0.8v81.2c0 2.6 1.9 5.7 4.1 7l50.2 28.9v0.1l25.3 14.5 8 4.6 0.3 0.1 8.1 4.7q0.4 0.2 0.8 0.4 0.2 0 0.4 0.1z"/><path class="h" d="m689.7 605.5q0.2 0 0.4 0 0.2 0 0.4 0 0.1 0 0.3 0 0.2 0 0.4-0.1c0.8-0.4 1.4-1.3 1.4-2.8v-81.1c0-2.6-1.8-5.8-4.1-7.1l-91.8-52.9c-1.4-0.7-2.5-0.6-3.3 0.1q-0.1 0.1-0.2 0.2-0.1 0.1-0.2 0.3-0.1 0.1-0.1 0.2-0.1 0.2-0.2 0.5 0 0.1 0 0.3-0.1 0.3-0.1 0.8v81.2c0 2.6 1.8 5.7 4.1 7l50.2 28.9 25.3 14.6 7.9 4.6 0.3 0.1 8.1 4.7q0.4 0.2 0.8 0.4 0.2 0 0.4 0.1z"/><path class="N" d="m677.3 521.4l-91.8-52.9c-0.9-0.5-1.7-0.6-2.4-0.5-0.3 0.1-0.9 0.4-4 1.7-2.5 1.1-3.6 1.9-4.1 2.3-0.6 0.5-0.9 1.3-0.9 2.5v81.2c0 2.5 1.8 5.7 4 7l77.3 44.5 6.5 3.7 8.1 4.7c1.1 0.6 2.1 0.7 2.8 0.3 0.5-0.2 1.3-0.4 2.7-0.9 2.6-0.9 4.1-2.1 4.8-2.8 0.7-0.5 1.1-1.4 1.1-2.6v-81.2c0-2.5-1.8-5.7-4.1-7z"/><path class="O" d="m671.2 616q0.2 0.1 0.4 0.1 0.2 0 0.4 0 0.1 0 0.2 0 0.2-0.1 0.4-0.2c0.9-0.3 1.5-1.3 1.5-2.7v-81.2c0-2.5-1.9-5.7-4.1-7l-91.9-52.9c-1.3-0.7-2.4-0.7-3.2 0q-0.1 0.1-0.2 0.3-0.1 0.1-0.2 0.3-0.1 0.1-0.1 0.2-0.1 0.2-0.2 0.5 0 0.1-0.1 0.2 0 0.4 0 0.9v81.2c0 2.5 1.8 5.7 4 7l50.3 28.9 25.3 14.6 7.9 4.6 0.3 0.1 8.1 4.7q0.4 0.2 0.8 0.3 0.2 0.1 0.4 0.1z"/><path class="P" d="m637.4 136.3l-145-83.5c-1.4-0.8-2.7-1-3.7-0.7-0.5 0-1.4 0.5-6.4 2.6-3.9 1.7-5.6 3-6.4 3.6-0.9 0.8-1.5 2.1-1.5 4v128.1c0 4.1 2.9 9.1 6.4 11.2l97.2 55.9 22.1 62.1 13-6.6v-35.3l12.8 7.3c1.7 1 3.3 1.1 4.4 0.5 0.8-0.2 2.1-0.6 4.2-1.4 4.1-1.4 6.5-3.3 7.7-4.4 1-0.7 1.7-2.1 1.7-4.1v-128.1c0-4.1-2.9-9.2-6.5-11.2z"/><path class="Q" d="m625.9 142l-145.1-83.5c-3.5-2-6.4-0.3-6.4 3.8v128.1c0 4.1 2.9 9.1 6.4 11.2l79.3 45.6 40 72.6v-49.6l25.8 14.8c3.5 2.1 6.4 0.4 6.4-3.7v-128.2c0-4-2.9-9.1-6.4-11.1z"/><path class="R" d="m530.7 179.4l-15.3-19.2q-0.7-0.9-1-1.6-0.4-0.7-0.4-1.5v-0.9q0-0.7 0.4-1.1 0.3-0.4 1-0.6l15.3-3.2q0.1 0 0.5-0.1 0.4 0 0.7 0.2 0.4 0.2 0.7 0.7 0.3 0.4 0.3 0.9v2.1q0 0.6-0.3 0.8-0.3 0.2-0.8 0.3l-13.2 2.8 13.2 16.6q0.6 0.8 0.8 1.3 0.3 0.4 0.3 1v2.1q0 0.5-0.3 0.7-0.3 0.1-0.7-0.1-0.4-0.2-1.2-1.2z"/><path class="R" d="m537.8 191.4q-0.3-0.5-0.3-0.9 0-0.2 0.1-0.5l16.7-33.8q0.5-0.6 1.3-0.2l1.8 1q0.4 0.2 0.7 0.6 0.3 0.5 0.3 0.9 0 0.2-0.2 0.5l-16.7 33.7q-0.1 0.3-0.4 0.4-0.4 0.1-0.9-0.1l-1.8-0.9q-0.3-0.2-0.6-0.7z"/><path class="R" d="m563.2 196.3q-0.3-0.4-0.3-0.9v-2.1q0-0.5 0.3-0.7 0.2-0.3 0.8-0.4l13.2-2.6-13.2-16.3q-0.6-0.8-0.8-1.3-0.3-0.5-0.3-1v-2.1q0-0.5 0.3-0.6 0.2-0.2 0.7 0.1 0.3 0.1 0.7 0.6 0.4 0.4 0.5 0.5l15.2 19q0.8 1 1.1 1.7 0.4 0.7 0.4 1.4v0.8q0 0.7-0.4 1.1-0.3 0.4-1.1 0.5l-15.2 3q-0.8 0.2-1.2 0-0.4-0.2-0.7-0.7z"/><g style="opacity:.1"><path class="a" d="m463.9 857.1c-5-2.9-13.1-2.8-18 0.3l-38.2 23.4c-4.9 3-4.8 7.9 0.2 10.7l124.6 71.7c5 2.9 13.1 2.8 18-0.2l38.1-23.5c4.9-3 4.9-7.8-0.1-10.7z"/></g><path class="S" d="m432.9 575l47.6-2.1c0 0 1.4-7 7-6.5 5.5 0.5 21.8-0.2 21.8-0.2 0 0 9.7-1.5-4.9 4.9-14.7 6.5-17.1 8.4-21.6 7-3.4 0.2-43.5 12.9-47 11.2-3.5-1.8-2.8-6.3-2.8-6.3z"/><path class="T" d="m470.9 500.2h-7.8c0 0-13.9 4.2-21.8 28.5-8 24.3-12 35.8-12.2 41.1-0.2 5.3-2.2 15.7 3.5 18.6 5.8 2.8 10.2-0.5 13.1-3.8 2.9-3.3 1.5-6.8 4.2-13.7 2.6-6.8 4.2-17 9.3-20.5 5-3.6 11.9-12.8 11.9-12.8z"/><path class="U" d="m446.8 879.7l-2.1 1.6c0 0-0.5 4.9-0.4 7.9 0.2 2.9-1.1 6 0.4 6.5 1.5 0.5 5.5 1.7 8.4 0.5 2.8-1.2 2.4-4.3 4.1-4.1 1.8 0.1 11.8-2.4 18.7-5.9 6.8-3.4 8.9-8.4 3.4-8-5.5 0.3-17.7 2.4-22.4 3.2-1.1 0.3-1.2-0.5-1.2-0.5l-2.1-0.3-2.5-0.4z"/><path class="V" d="m455.7 881.3c0 1.5-2.4 2.7-5.5 2.7-3 0-5.5-1.2-5.5-2.7 0-1.5 2.5-2.8 5.5-2.8 3.1 0 5.5 1.3 5.5 2.8z"/><path class="W" d="m464.9 650.7c-12 2.3-8.7 8.9-8.7 15.1 0 6.1-3.5 38.9-7.9 81.6-4.1 39.3-2 56.5-2.5 86.6-0.4 24-2.1 36.4-2.8 40.5-0.2 0.5-0.3 1-0.3 1.6 0 3.4 3.5 6.1 7.8 6.1 4.4 0 7.9-2.7 7.9-6.1 0 0 4.6-60.2 5.4-66.6 4-31.8 14.7-69.9 18.8-84.2 4-14.2 21.3-63.7 21.3-63.7 0 0-12.4-16-39-10.9z"/><path class="X" d="m485.7 516.5c0.9-1.7 7.3-15.5 8.3-24.7 1-9.1 0.5-14.1 1.1-14.3 0.7-0.2 6.3-1.6 6.3-1.6l10.7 5.8 4.9 2.1c0 0 3.1 7.8-1 11.6-9.6 8.6-7.6 29.5-1.1 29 0.6-0.1 0 6.8-6.4 4.6-6.3-2.3-14.5-6.3-15.6-7.2-1.1-0.9-7.2-5.3-7.2-5.3z"/><path class="Y" d="m521 481c1.2-0.5 2.2-1.4 2.2-2.5 0-1.5-4.9-10.1-7.1-12.1-0.2-1.6-0.5-3.6-0.7-5.3-0.5-3.6-1.4-5.9-4.3-5.9-2.9 0-9.4 1.5-9.4 1.5 0 0-7.6 4.2-7.6 4.4 0 0.2-9.4 21.3-9.4 21.9 0 0.7 12.5 16.3 32.3 16.4 2.5 0 4.5-2.1 4.5-4.6q0-0.8-0.3-1.5c-0.2-1.1-0.4-2.6-0.4-3.8 0-2.2 1.2-3.1 0.7-4.2-0.6-1.1-1.4-1.8-1-2.9 0.1-0.3 0.3-0.8 0.5-1.4z"/><path class="Z" d="m516 912.5l-2.6 2.2c0 0-0.8 6.9-0.5 10.9 0.2 4-1.4 8.3 0.5 9 1.8 0.7 6.8 2.4 10.4 0.7 3.6-1.6 3.1-5.9 5.2-5.7 2.2 0.3 14.7-3.3 23.3-8 8.5-4.8 11.1-11.7 4.2-11.2-6.8 0.5-22 3.3-28 4.5-1.2 0.3-1.5-0.7-1.5-0.7l-2.5-0.4-3.2-0.5z"/><path class="V" d="m527.1 914.7c0 2.1-3.1 3.8-6.9 3.8-3.8 0-6.8-1.7-6.8-3.8 0-2.1 3-3.8 6.8-3.8 3.8 0 6.9 1.7 6.9 3.8z"/><path class="a0" d="m533.4 658.2l-27.7 4.5c-1.8-11.5-9.5-20.2-18.8-20.2-10.7 0-19.3 11.3-19.3 25.2 0 4.8 1.1 9.4 3 13.2 5 13.5 25.7 29.9 27.9 50.8 2.4 22.4 9.2 31.8 10.2 44.9 0.9 13.1 1.9 73.1 3.1 92.3 1.2 19.3 1.8 42.1 1.8 42.1 0 3.1 2.9 5.5 6.4 5.5 3.6 0 6.4-2.4 6.4-5.5 0 0 7-97.6 7.5-119.4 0.4-21.9 0.2-23.3 0.4-50.6 0.3-31.7-0.9-82.8-0.9-82.8z"/><path class="a1" d="m533.6 590.6c4.9-19.9 7.7-27.6 7.7-27.6l-2.8-36.7c0 0-11.5-6.8-23.9-9.1-9.5-1.7-14.4-2.6-23.4-7.3-2.2-1.1-6.6-7.3-17.4-10.2 0 0-10.4-3.2-14.6 4.1-5.6 9.4-2.7 20.1 0.2 43.9 2.8 23.9 3.1 51.5 0 71.8-1.8 11.8-4.8 25.9-3.3 34.3 0 0.1 0 0.1 0 0.2 0.1 0.8 0.3 1.6 0.7 2.4 0.7 1.9 1.8 3.4 3.4 4.1 6.5 5.3 19.8 8.9 35.7 8.9 15 0 27.5-2.9 34.2-7.4 3-1 6.3-4.5 6.2-14.6-0.3-17.5-7.6-36.9-2.7-56.8z"/><path class="a" d="m513.3 456.9c1.3-7.2-0.2-22-0.2-22 0-1.2-1-2.1-2.3-2.1-18.1-0.6-36.4 22.3-40 27-1.9 2.2-3.1 5-3.1 8.1q0 1.4 0.3 2.8 0 0.1 0 0.2c1.2 8.9 15.2 23.3 15.2 23.3h0.1c1.5 1.5 3.6 2.5 6 2.5 4.1 0 7.4-2.8 8.1-6.4q0-0.1 0-0.1c0.5-2.2 1.6-7.1 1.1-16-0.1-2.9 9-5.7 9.2-5.7l0.1-0.1c1.8-0.6 3.1-1.9 3.7-3.6q0 0 0 0 0 0 0-0.1 0.1-0.4 0.2-0.9c0.4-1.9 0.4-2.2 1.6-6.9z"/><path class="a2" d="m567.6 591.2l60.3-2.6c0 0 1.8-8.9 8.9-8.2 7 0.7 27.6-0.2 27.6-0.2 0 0 12.4-2-6.2 6.2-18.5 8.2-21.6 10.6-27.4 8.8-4.2 0.2-55 16.4-59.4 14.2-4.4-2.3-3.5-8-3.5-8z"/><path class="a3" d="m575.1 588.1c-0.6-3.1-5.8-7.4-16.7-32.8-6.5-14.9-11.6-22-14.8-25.3-2.9-3.5-7.5-5.7-12.5-5.7-8.9 0-16.2 6.8-16.2 15.2q0 1.6 0.4 3.1c-0.3 11.2 32.9 43.4 37.9 49.4 5 5.9 6.5 11.9 12.9 17.1 7.1 5.4 9 2.3 7.6-4.1-1.3-6 2.9-9.3 1.4-16.9z"/><g style="opacity:.1"><path class="a" d="m841.2 1199.9c5.6-3.2 14.8-3.1 20.3 0.3l43 26.5c5.6 3.4 5.5 8.8-0.2 12.1l-140.5 80.9c-5.6 3.2-14.8 3.1-20.3-0.3l-43-26.5c-5.5-3.4-5.4-8.9 0.2-12.1z"/></g><path class="a4" d="m844.3 892.7l-48-24.2c0 0 1.8-7.8-4.2-9.9-5.9-2-22.3-10.3-22.3-10.3 0 0-9.3-6.1 2.8 7.3 12 13.4 13.7 16.5 19 17.2 3.3 1.7 38.7 33.4 43.1 33.2 4.4-0.2 5.7-5.2 5.7-5.2z"/><path class="a5" d="m839.9 798.2l7.9 3.6c0 0 12.4 10.8 9.3 39.4-3.1 28.7-4.3 42.4-6.5 47.9-2.2 5.6-5 17.2-12.2 17.5-7.3 0.2-10.3-5.2-11.7-9.9-1.4-4.8 1.6-7.8 2-16.1 0.5-8.2 3.6-19.4 0-25.4-3.6-6-6.3-18.7-6.3-18.7z"/><path class="a6" d="m860.4 1225.5l2.4 1.7c0 0 0.6 5.6 0.4 8.9-0.2 3.3 1.3 6.8-0.4 7.4-1.7 0.5-6.2 1.9-9.4 0.5-3.2-1.3-2.8-4.8-4.7-4.6-2 0.2-13.3-2.7-21-6.6-7.7-3.9-10.1-9.5-3.9-9.1 6.2 0.4 19.9 2.7 25.3 3.7 1.2 0.2 1.4-0.6 1.4-0.6l2.2-0.4 2.9-0.4z"/><path class="V" d="m850.4 1227.2c0 1.7 2.8 3.1 6.2 3.1 3.4 0 6.2-1.4 6.2-3.1 0-1.7-2.8-3.1-6.2-3.1-3.4 0-6.2 1.4-6.2 3.1z"/><path class="a7" d="m840 967.2c13.6 2.5 9.8 10 9.8 17 0 6.9 4 43.8 9 92 4.5 44.4 2.3 63.7 2.8 97.7 0.4 27.1 2.4 41 3.1 45.6 0.2 0.6 0.4 1.2 0.4 1.8 0 3.9-4 7-8.9 7-4.8 0-8.8-3.1-8.8-7 0 0-5.2-67.8-6.1-75-4.5-35.9-16.6-78.9-21.2-95-4.5-16-24.1-71.8-24.1-71.8 0 0 14.1-18.1 44-12.3z"/><path class="a8" d="m816.6 815.9c-1-2-8.2-17.6-9.4-27.9-1.1-10.3-0.6-15.9-1.3-16.2-0.7-0.2-7-1.7-7-1.7l-12.1 6.5-5.6 2.4c0 0-3.4 8.7 1.2 13 10.8 9.7 8.5 33.3 1.3 32.7-0.7-0.1 0 7.7 7.1 5.2 7.2-2.6 16.4-7.1 17.7-8.1 1.2-1 8.1-5.9 8.1-5.9z"/><path class="a9" d="m776.7 775.8c-1.3-0.5-2.4-1.6-2.4-2.9 0-1.7 5.5-11.4 8-13.5 0.3-1.9 0.5-4.1 0.8-6.1 0.5-4.1 1.5-6.6 4.8-6.6 3.3 0 10.7 1.7 10.7 1.7 0 0 8.5 4.8 8.5 5 0 0.2 10.6 23.9 10.6 24.7 0 0.8-14.1 18.3-36.4 18.4-2.8 0-5.1-2.3-5.1-5.1q0.1-0.9 0.4-1.7c0.2-1.3 0.4-2.9 0.4-4.3 0-2.5-1.4-3.5-0.8-4.8 0.7-1.2 1.6-2 1.1-3.2-0.1-0.4-0.3-1-0.6-1.6z"/><path class="aa" d="m782.5 1262.5l2.9 2.4c0 0 0.8 7.8 0.5 12.3-0.2 4.6 1.6 9.4-0.5 10.2-2.1 0.8-7.8 2.7-11.8 0.8-4-1.9-3.5-6.7-5.9-6.4-2.4 0.2-16.6-3.8-26.2-9.1-9.6-5.4-12.6-13.2-4.8-12.6 7.7 0.5 24.9 3.7 31.6 5.1 1.4 0.3 1.7-0.9 1.7-0.9l2.8-0.5 3.6-0.5z"/><path class="V" d="m769.9 1264.9c0 2.4 3.5 4.3 7.7 4.3 4.3 0 7.8-1.9 7.8-4.3 0-2.4-3.5-4.3-7.8-4.3-4.2 0-7.7 1.9-7.7 4.3z"/><path class="ab" d="m762.8 975.6l31.2 5.1c2-13 10.8-22.8 21.3-22.8 12 0 21.7 12.7 21.7 28.4 0 5.5-1.3 10.6-3.3 15-5.7 15.2-29 33.6-31.5 57.3-2.7 25.1-10.5 35.8-11.5 50.6-1.1 14.7-2.2 82.4-3.5 104.1-1.4 21.7-2.1 47.4-2.1 47.4 0 3.5-3.2 6.3-7.2 6.3-4 0-7.2-2.8-7.2-6.3 0 0-7.9-110-8.4-134.7-0.5-24.6-0.3-26.2-0.6-57-0.3-35.8 1.1-93.4 1.1-93.4z"/><path class="ac" d="m762.6 899.4c-5.5-22.5-8.8-31.2-8.8-31.2l3.3-41.3c0 0 12.9-7.6 26.9-10.3 10.7-2 16.2-2.9 26.4-8.2 2.5-1.3 7.4-8.2 19.6-11.6 0 0 11.7-3.5 16.5 4.6 6.3 10.7 3 22.7-0.2 49.6-3.3 26.9-3.5 58.1 0 81 2 13.3 5.4 29.1 3.7 38.6 0 0.1 0 0.2 0 0.3-0.1 0.9-0.4 1.8-0.8 2.6-0.8 2.3-2.1 3.9-3.9 4.8-7.3 5.9-22.2 10-40.2 10-17 0-31-3.3-38.6-8.4-3.4-1.2-7.1-5.1-6.9-16.5 0.2-19.7 8.4-41.6 3-64z"/><path class="ad" d="m785.5 748.6c-1.5-8.1 0.2-24.8 0.2-24.8 0-1.3 1.2-2.4 2.6-2.4 20.4-0.7 41 25.2 45.1 30.5 2.1 2.5 3.5 5.7 3.5 9.1q0 1.6-0.4 3.1 0.1 0.2 0.1 0.3c-1.4 10-17.2 26.3-17.2 26.3h-0.1c-1.7 1.7-4.1 2.8-6.8 2.8-4.6 0-8.4-3.2-9.1-7.2q0-0.1 0-0.2c-0.6-2.4-1.8-7.9-1.3-18 0.2-3.3-10.1-6.4-10.4-6.5h-0.1c-1.9-0.7-3.4-2.2-4.1-4q0-0.1 0-0.1 0 0 0-0.1-0.2-0.5-0.2-1c-0.4-2.1-0.4-2.5-1.8-7.8z"/><path class="ae" d="m752 911.1l-16.5 91.3c0 0-10.2 0.5-10.6 8.5-0.4 8-4.6 30.8-4.6 30.8 0 0-4.2 13.5 7.9-5.9 12.1-19.4 15.3-22.5 14.2-29.2 0.9-4.6 25.6-57 24.6-62.5-0.8-4.6 8.2-22.7 3.6-30-0.6-0.9-9.1 6.7-9.1 6.7z"/><path class="af" d="m750.7 916.3c-2.5-2.6 1-10.6-3.9-41.3-3-18.1-2.4-28-1.4-33.1 0.7-5 3.7-9.9 8.5-13 8.5-5.4 19.5-3.2 24.6 4.8q1 1.5 1.5 3.1c7 10.4-5.1 61.2-6.2 69.9-1.1 8.7 0.5 16.1-6.7 15.9-5.5-0.2-12.7-2.3-16.4-6.3z"/><g style="opacity:.1"><path class="a" d="m522.5 1094.2c-3.8-2.5-10.3-2.6-14.2-0.4l-109.1 61.1c-3.9 2.2-4 6-0.2 8.4l136.1 86c3.9 2.4 10.3 2.6 14.3 0.3l109-61c4-2.2 4.1-6.1 0.2-8.5z"/></g><path class="ag" d="m651.5 1177.1l0.5-11.3c0.3-1.6-0.5-3.3-2.5-4.5l-122-77.1c-3.5-2.2-9.2-2.3-12.8-0.3l-97.7 54.7c-1.9 1.1-2.8 2.6-2.7 4l-0.5 11.5q-0.1 0.4 0 0.7v0.1c0.1 1.3 0.9 2.5 2.5 3.5l122 77.1c3.5 2.1 9.2 2.3 12.8 0.3l97.7-54.7c1.9-1.1 2.8-2.6 2.7-4q0 0 0 0z"/><path class="ah" d="m527.5 1084.2c-3.5-2.2-9.2-2.3-12.8-0.3l-97.7 54.7c-3.6 2-3.7 5.5-0.2 7.6l122 77.1c3.5 2.2 9.2 2.3 12.8 0.3l97.7-54.7c3.6-2 3.7-5.4 0.2-7.6z"/><path class="ai" d="m675.3 1158.4l-0.3-11.2c0.3-1.6-0.6-3.3-2.7-4.4l-126.3-69.7c-3.6-2-9.4-1.8-12.8 0.4l-94.3 60.5c-1.9 1.2-2.7 2.7-2.5 4.1l0.2 11.5q0 0.4 0 0.7v0.1c0.2 1.3 1.1 2.5 2.7 3.4l126.4 69.6c3.6 2 9.3 1.8 12.8-0.4l94.3-60.4c1.8-1.2 2.6-2.7 2.5-4.2q0 0 0 0z"/><path class="aj" d="m546 1073.1c-3.6-2-9.4-1.8-12.8 0.4l-94.3 60.5c-3.5 2.2-3.4 5.6 0.2 7.6l126.4 69.7c3.6 1.9 9.3 1.7 12.8-0.5l94.3-60.4c3.4-2.2 3.3-5.6-0.3-7.6z"/><path class="ak" d="m663.9 1134.2v-11.3c0.3-1.6-0.6-3.2-2.7-4.4l-125-72c-3.6-2-9.3-1.9-12.8 0.2l-95.4 58.7c-1.9 1.1-2.7 2.6-2.6 4.1v11.5q0 0.4 0 0.7v0.1h0.1c0.1 1.3 1 2.5 2.6 3.4l125.1 72c3.5 2 9.3 1.9 12.7-0.2l95.5-58.7c1.8-1.2 2.6-2.7 2.5-4.1z"/><path class="al" d="m536.2 1046.5c-3.6-2-9.3-1.9-12.8 0.2l-95.4 58.7c-3.5 2.1-3.4 5.6 0.1 7.6l125.1 72c3.5 2 9.3 1.9 12.7-0.2l95.5-58.7c3.4-2.1 3.4-5.6-0.2-7.6z"/><path class="I" d="m553.4 1156.3l-6.9-55.8-34.7 5.6 8.7-24.8-61.6 5.1-30.9 19c-3.5 2.1-3.4 5.6 0.1 7.6l125.1 72c3.5 2 9.3 1.9 12.7-0.2l18.9-11.6-1.7-22.5z"/><path class="s" d="m610.8 1122.2c0 12.1-13 22-28.9 22-16 0-28.9-9.9-28.9-22 0-12.1 12.9-22 28.9-22 15.9 0 28.9 9.9 28.9 22z"/><g style="opacity:.1"><path class="a" d="m260.1 884.6c3.3-2.1 8.8-2.2 12.1-0.3l92.9 52c3.3 1.9 3.4 5.1 0.1 7.2l-115.8 73.2c-3.3 2-8.8 2.2-12.2 0.3l-92.8-52c-3.4-1.9-3.5-5.2-0.2-7.2z"/></g><path class="i" d="m150.2 955.2l-0.3-9.6c-0.3-1.4 0.4-2.8 2.1-3.9l103.9-65.6c2.9-1.8 7.8-2 10.8-0.3l83.3 46.7c1.6 0.9 2.3 2.1 2.3 3.4l0.4 9.8q0 0.2 0 0.5v0.1c-0.1 1.1-0.8 2.2-2.2 3l-103.8 65.6c-3 1.9-7.9 2-10.9 0.3l-83.2-46.6c-1.7-0.9-2.4-2.2-2.4-3.4z"/><path class="am" d="m255.9 876.1c2.9-1.8 7.8-2 10.8-0.3l83.3 46.7c3 1.7 3.1 4.6 0.1 6.4l-103.9 65.6c-2.9 1.9-7.8 2-10.8 0.3l-83.3-46.6c-3-1.7-3.1-4.6-0.1-6.5z"/><path class="i" d="m142.2 934.4l0.1-9.6c-0.3-1.3 0.5-2.7 2.2-3.7l106.5-61.3c3-1.8 7.9-1.7 10.9 0.1l81.2 50c1.6 1 2.3 2.3 2.2 3.5v9.8q0 0.3 0 0.6v0.1c-0.2 1-0.9 2.1-2.3 2.9l-106.5 61.2c-3 1.8-7.9 1.7-10.8-0.1l-81.3-50c-1.6-1-2.3-2.2-2.2-3.5z"/><path class="an" d="m251 859.8c3-1.8 7.9-1.7 10.9 0.1l81.2 50c3 1.8 2.9 4.7-0.1 6.5l-106.5 61.3c-3 1.7-7.9 1.6-10.8-0.2l-81.3-50c-2.9-1.8-2.9-4.7 0.1-6.4z"/><path class="a" d="m259.9 916.5q-0.5 0.3-0.5 0.7-0.1 0.3 0.3 0.6l2.5 1.8q0.4 0.3 0.9 0.2 0.6 0 1-0.2l3.1-1.9q0.4-0.3 0.5-0.6 0-0.4-0.4-0.6l-2.5-1.8q-0.3-0.3-0.9-0.3-0.5 0-1 0.3z"/><path class="a" d="m245 893.6q-0.5 0.3-0.5 0.6-0.1 0.3 0.3 0.6l1.2 0.9q0.4 0.3 0.9 0.2 0.5 0 0.9-0.2l0.2-0.1q2.2-1.3 4.1-1.3 1.9 0 3.9 1 2 1 5.3 3.3 4.3 3.1 9.1 2.2-1.7 3.1 2.6 6.1 3.2 2.4 4.6 3.8 1.4 1.4 1.2 2.7-0.2 1.2-2.3 2.5l-0.2 0.2q-0.4 0.2-0.5 0.5 0 0.4 0.3 0.6l1.3 0.9q0.4 0.3 0.9 0.3 0.5 0 0.9-0.3l0.2-0.1q3.4-2.1 4.1-4.1 0.7-2-0.9-4.1-1.5-2.1-5.1-4.7-1.9-1.3-2.4-2.4-0.4-1.1 0.2-2.4l0.1-0.3q0.3-0.6 0.3-1-0.1-0.3-0.6-0.7l-0.6-0.4q-0.5-0.4-1-0.4-0.6-0.1-1.5 0.1h-0.6q-1.9 0.3-3.5-0.1-1.6-0.4-3.5-1.7-3.6-2.6-6.6-3.8-3-1.2-6.1-0.9-3.1 0.3-6.5 2.4z"/><path class="a" d="m248.8 923.3q-0.5 0.2-0.5 0.6-0.1 0.4 0.3 0.6l2.5 1.8q0.4 0.3 0.9 0.3 0.6 0 1-0.3l3.1-1.9q0.4-0.2 0.5-0.6 0-0.3-0.4-0.6l-2.5-1.8q-0.4-0.2-0.9-0.3-0.5 0-1 0.3z"/><path class="a" d="m207.1 916.6q-3.3 2.1-4.1 4.1-0.6 2 0.9 4.1 1.6 2.1 5.2 4.7 1.9 1.3 2.3 2.4 0.4 1.1-0.2 2.4l-0.1 0.3q-0.3 0.6-0.3 0.9 0.1 0.4 0.5 0.7l0.7 0.5q0.5 0.3 1 0.4 0.6 0.1 1.5-0.1l0.5-0.1q2-0.2 3.7 0.1 1.6 0.4 3.4 1.8 3.6 2.6 6.6 3.7 3 1.2 6.1 0.9 3.1-0.3 6.5-2.3l0.3-0.2q0.4-0.2 0.4-0.5 0.1-0.4-0.2-0.6l-1.3-1q-0.4-0.2-0.9-0.2-0.5 0-0.9 0.3l-0.2 0.1q-2.2 1.3-4.1 1.3-1.9 0-3.9-1-2.1-1-5.3-3.3-4.3-3.1-9.1-2.2 1.7-3.1-2.5-6.1-3.3-2.3-4.7-3.8-1.4-1.4-1.2-2.7 0.2-1.2 2.3-2.5l0.2-0.2q0.4-0.2 0.5-0.6 0-0.3-0.3-0.6l-1.3-0.8q-0.3-0.3-0.8-0.3-0.6 0-0.9 0.3z"/><path class="a" d="m237.7 930q-0.5 0.3-0.5 0.6-0.1 0.4 0.3 0.7l2.5 1.8q0.4 0.2 0.9 0.2 0.5 0 1-0.3l3.1-1.8q0.4-0.3 0.5-0.6 0-0.4-0.4-0.6l-2.5-1.8q-0.4-0.3-0.9-0.3-0.5 0-1 0.3z"/><g style="opacity:.1"><path class="a" d="m65.6 1079c-1.9-1.2-5-1.3-6.9-0.2l-53.1 29.7c-1.9 1.1-2 3-0.1 4.1l66.2 41.9c1.9 1.2 5 1.2 7 0.2l53.1-29.8c1.9-1.1 1.9-2.9 0.1-4.1z"/></g><path class="i" d="m128.4 1119.3l0.2-5.5c0.2-0.7-0.2-1.5-1.2-2.2l-59.4-37.5c-1.6-1-4.4-1.1-6.2-0.1l-47.6 26.6c-0.9 0.5-1.3 1.2-1.3 2l-0.2 5.6q-0.1 0.1 0 0.3c0 0.6 0.4 1.3 1.2 1.7l59.4 37.6c1.7 1 4.5 1.1 6.2 0.1l47.6-26.6c0.9-0.6 1.4-1.3 1.3-2z"/><path class="ao" d="m68 1074.1c-1.6-1-4.4-1.1-6.2-0.1l-47.6 26.6c-1.7 1-1.8 2.6-0.1 3.7l59.4 37.5c1.7 1.1 4.5 1.2 6.3 0.2l47.5-26.7c1.8-0.9 1.8-2.6 0.1-3.7z"/><path class="ap" d="m133 1107.4v-5.4c0.1-0.8-0.3-1.6-1.3-2.2l-60.9-35c-1.7-1-4.5-1-6.2 0l-46.5 28.6c-0.9 0.6-1.3 1.3-1.2 2v5.6q0 0.2 0 0.4c0.1 0.6 0.5 1.2 1.3 1.7l60.9 35c1.7 1 4.5 1 6.2-0.1l46.5-28.6c0.9-0.5 1.3-1.2 1.2-2z"/><path class="aq" d="m70.8 1064.8c-1.7-1-4.5-1-6.2 0l-46.5 28.6c-1.7 1.1-1.6 2.7 0.1 3.7l60.9 35.1c1.7 1 4.5 0.9 6.2-0.1l46.5-28.6c1.7-1 1.6-2.7-0.1-3.7z"/><path class="R" d="m85.6 1096.4q0.2 0.1 0.2 0.3 0 0.1-0.2 0.2l-12.1 7.1q-0.2 0.1-0.5 0.1-0.2 0-0.4-0.1l-0.9-0.5q-0.2-0.1-0.2-0.2 0-0.2 0.2-0.3l5.4-3.1-6.3-3.5-5.4 3.1q-0.2 0.1-0.4 0.1-0.3 0-0.4-0.1l-0.9-0.5q-0.2-0.1-0.2-0.2 0-0.1 0.2-0.2l12.2-7.1q0.2-0.1 0.4-0.1 0.2-0.1 0.4 0l0.9 0.5q0.2 0.1 0.2 0.3 0 0.1-0.2 0.2l-5.2 3 6.3 3.6 5.2-3q0.2-0.2 0.4-0.2 0.2 0 0.4 0.1z"/><path fill-rule="evenodd" class="R" d="m71.9 1089.9q0.1 1.3-1.8 2.4-1.9 1.1-4.1 1-2.2 0-4.2-1.2l-3.3-1.8-4.7 2.7q-0.2 0.2-0.4 0.2-0.2 0-0.4-0.1l-0.9-0.5q-0.2-0.1-0.2-0.3 0-0.1 0.2-0.2l12.2-7.1q0.2-0.1 0.4-0.1 0.2 0 0.4 0.1l4.6 2.5q2 1.2 2.2 2.4zm-8.7 1.3q2.7 1.5 5.2 0.1 1.1-0.7 1.1-1.4-0.1-0.8-1.4-1.5l-3.2-1.8-4.9 2.8z"/><path fill-rule="evenodd" class="R" d="m96.4 1103.6q0.1 1.2-1.8 2.3-1.9 1.2-4.1 1.1-2.2-0.1-4.2-1.2l-3.3-1.8-4.7 2.7q-0.1 0.1-0.4 0.1-0.2 0-0.4-0.1l-0.9-0.5q-0.2-0.1-0.2-0.2 0-0.1 0.2-0.2l12.2-7.1q0.2-0.1 0.4-0.1 0.2-0.1 0.4 0l4.6 2.6q2 1.1 2.2 2.4zm-8.7 1.3q2.7 1.5 5.2 0.1 1.2-0.7 1.1-1.5 0-0.7-1.4-1.5l-3.2-1.7-4.9 2.8z"/><path class="h" d="m299.5 1204c0 17.8-24.9 32.3-55.5 32.3-30.7 0-55.5-14.5-55.5-32.3 0-17.8 24.8-32.2 55.5-32.2 30.6 0 55.5 14.4 55.5 32.2z"/><path class="i" d="m295.3 1146.4l-24.5-2-17.5-1.6-35.9 1.1-22.9 1.6-3.7 2.5 6.5 52.7q0 0 0 0.1c0 14.6 20.5 26.6 45.8 26.6 24.5 0 44.5-11.2 45.7-25.3 0 0 0.1-0.1 0.1-0.1z"/><path class="j" d="m295.3 1147.4c0 15.1-23.4 27.4-52.2 27.4-28.9 0-52.2-12.3-52.2-27.4 0-15.1 23.3-27.4 52.2-27.4 28.8 0 52.2 12.3 52.2 27.4z"/><path class="k" d="m277.1 1147.4c0 9.8-15.2 17.8-34 17.8-18.8 0-34-8-34-17.8 0-9.9 15.2-17.9 34-17.9 18.8 0 34 8 34 17.9z"/><g style="opacity:.1"><path class="a" d="m368 1019c-1.6-1-4.3-1.1-5.9-0.2l-45 25.2c-1.6 0.9-1.7 2.5-0.1 3.5l56.2 35.5c1.6 1 4.2 1 5.9 0.1l45-25.2c1.6-0.9 1.6-2.5 0-3.5z"/></g><path class="i" d="m421.2 1053.2l0.2-4.7c0.2-0.6-0.2-1.3-1-1.8l-50.4-31.8c-1.4-0.9-3.8-1-5.2-0.2l-40.4 22.6c-0.7 0.5-1.1 1.1-1.1 1.7l-0.2 4.7q0 0.2 0 0.3c0.1 0.6 0.4 1.1 1.1 1.5l50.3 31.8c1.4 0.9 3.8 0.9 5.3 0.1l40.3-22.6c0.8-0.4 1.2-1 1.1-1.6z"/><path class="ar" d="m370 1014.9c-1.4-0.9-3.8-1-5.2-0.2l-40.4 22.6c-1.4 0.8-1.5 2.2 0 3.1l50.3 31.8c1.4 0.9 3.8 1 5.3 0.2l40.3-22.6c1.5-0.8 1.5-2.2 0.1-3.1z"/><path class="as" d="m425.1 1043.1v-4.6c0.1-0.7-0.2-1.4-1.1-1.9l-51.6-29.7c-1.5-0.8-3.8-0.8-5.3 0.1l-39.3 24.2c-0.8 0.5-1.2 1.1-1.1 1.7v4.8q0 0.1 0 0.3c0.1 0.5 0.4 1 1.1 1.4l51.6 29.7c1.5 0.8 3.8 0.8 5.3-0.1l39.4-24.2c0.7-0.5 1.1-1.1 1-1.7z"/><path class="at" d="m372.4 1006.9c-1.5-0.8-3.8-0.8-5.3 0.1l-39.3 24.2c-1.5 0.9-1.5 2.3 0 3.2l51.6 29.7c1.5 0.8 3.8 0.8 5.3-0.1l39.4-24.2c1.4-0.9 1.4-2.3-0.1-3.2z"/><path class="R" d="m371.6 1025.1q1.4 0.7 1.9 1.6 0.4 0.8 0.1 1.6-0.4 0.8-1.3 1.4l-0.3 0.1-0.4-0.1-0.8-0.4-0.1-0.2q0-0.1 0.1-0.3 1-0.9 0.8-1.6-0.1-0.7-1.4-1.3-2.7-1.5-6 0.4-0.5 0.3-1.4 0.8-1 0.6-1.4 0.9-3.1 2-0.4 3.5 1.2 0.6 2.5 0.7 1.2 0.1 2.7-0.5 0.2-0.1 0.4-0.1l0.4 0.1 0.8 0.4 0.1 0.2-0.1 0.2q-1 0.5-2.4 0.8-1.3 0.2-2.8 0-1.5-0.2-2.9-1-2.1-1.1-2-2.4 0.1-1.3 2.1-2.7 0.4-0.3 1.4-0.9 1-0.6 1.5-0.9 2.2-1.2 4.5-1.3 2.3-0.2 4.4 1z"/><path class="R" d="m391.4 1035.8q1.3 0.6 1.7 1.4 0.4 0.7 0.2 1.4-0.2 0.7-0.9 1.1l-0.4 0.1-0.3-0.1-0.8-0.4-0.1-0.2v-0.2q0.7-0.5 0.5-1.1-0.2-0.7-1.2-1.2-1.1-0.6-2.2-0.7-1.1 0-1.9 0.5-0.6 0.3-0.7 0.7 0 0.4 0.3 0.9 0.3 0.5 1.1 1.4 1 0.9 1.3 1.6 0.4 0.7 0.2 1.2-0.2 0.6-1.1 1.1-1.6 1-3.6 0.9-2-0.1-3.9-1.1-1.3-0.7-1.9-1.5-0.5-0.8-0.3-1.5 0.2-0.7 1-1.2l0.3-0.1 0.4 0.1 0.7 0.4q0.3 0.2 0.1 0.4-0.5 0.5-0.4 1.2 0.2 0.7 1.5 1.4 1.3 0.7 2.5 0.7 1.1 0.1 2-0.4 0.6-0.4 0.6-0.8 0-0.4-0.3-0.9-0.4-0.5-1.3-1.5-0.8-0.8-1.1-1.5-0.3-0.6-0.1-1.2 0.2-0.5 1.2-1.1 0.9-0.6 2-0.7 1.2-0.2 2.5 0 1.2 0.2 2.4 0.9z"/><path class="R" d="m381.6 1030.5q1.2 0.6 1.7 1.4 0.4 0.7 0.2 1.4-0.3 0.7-0.9 1.1l-0.4 0.1-0.3-0.1-0.8-0.4-0.2-0.2 0.1-0.2q0.7-0.5 0.5-1.1-0.2-0.7-1.2-1.2-1.1-0.6-2.2-0.7-1.1 0-1.9 0.5-0.6 0.3-0.7 0.7-0.1 0.4 0.3 0.9 0.3 0.5 1.1 1.4 1 0.9 1.3 1.6 0.4 0.6 0.2 1.2-0.2 0.6-1.1 1.1-1.6 1-3.6 0.9-2-0.1-3.9-1.1-1.3-0.7-1.9-1.5-0.5-0.8-0.3-1.5 0.2-0.7 1-1.2l0.3-0.1 0.4 0.1 0.7 0.4q0.3 0.2 0.1 0.4-0.5 0.5-0.4 1.2 0.2 0.7 1.4 1.4 1.4 0.7 2.5 0.7 1.2 0.1 2.1-0.4 0.6-0.4 0.6-0.8 0-0.4-0.3-0.9-0.4-0.5-1.3-1.4-0.8-0.9-1.2-1.6-0.3-0.6 0-1.2 0.2-0.5 1.2-1.1 0.9-0.6 2-0.7 1.2-0.2 2.5 0 1.2 0.2 2.4 0.9z"/></svg>