<svg version="1.2" xmlns="http://www.w3.org/2000/svg" viewBox="0 0 960 960" width="960" height="960"><style>.a{fill:#314584}.b{fill:#ff3946}.c{fill:#3d3d49}</style><path fill-rule="evenodd" class="a" d="m929.1 98.4c0 0 0 766.4 0 766.4 0 39.6-32.2 71.8-71.9 71.9h-759.2c-39.6-0.1-71.8-32.3-71.9-71.9 0-0.1 0-766.4 0-766.4 0.1-26 13.9-48.7 34.6-61.3 6-3.7 12.6-6.5 19.6-8.3 0.5-0.1 1.1-0.3 1.6-0.4 0.1 0 0.1 0 0.1 0q0.3-0.1 0.6-0.2 1.1-0.2 2.3-0.4c1.6-0.3 3.1-0.6 4.7-0.8q0.3 0 0.7 0 0.4-0.1 0.8-0.2 0.1 0 0.1 0 3.1-0.3 6.4-0.3 0.2 0 0.4 0h759.2c2.4 0 4.7 0.1 7 0.3 0.3 0.1 0.7 0.1 1 0.2h0.3q2.5 0.3 4.9 0.8 0 0 0.1 0 0.6 0.1 1.2 0.2 0.8 0.2 1.6 0.4c0.6 0.1 1.1 0.3 1.7 0.4 27.8 7.1 49.1 30.4 53.3 59.3 0.5 3.4 0.8 6.8 0.8 10.3zm-28.7 28.9l-64.2 187.3c-4.6 13.5-12.9 25.5-23.2 35.4-3.7 3.7-7.8 7-12 10.1-15.9 11.3-34.9 18.6-54.5 18.7h-160.4v-28.8h160.4c12.1 0.1 26-4.9 37.7-13.3 11.8-8.4 21-19.9 24.8-31.4l73.5-214.7c1.5-4.4 2.2-8.5 2.2-12-0.1-7.3-2.5-12.5-6.7-16.5-3.1-2.8-7.4-5.1-13.2-6.1q0 0 0 0-0.9-0.2-1.8-0.3c-0.9-0.1-1.9-0.2-2.8-0.2-0.9-0.1-1.7-0.2-2.7-0.2q-0.1 0-0.3-0.1h-759.2q-0.1 0.1-0.3 0.1c-1.1 0-2 0.1-3 0.2-0.8 0.1-1.7 0.1-2.5 0.2q-0.8 0.1-1.7 0.3c-1.5 0.2-2.9 0.7-4.4 1.1-3.6 1.2-6.6 3-8.8 5-4.2 4-6.6 9.2-6.7 16.5 0 3.5 0.6 7.6 2.1 12l73.5 214.7c3.9 11.5 13.1 23 24.8 31.4 11.7 8.4 25.7 13.4 37.8 13.3h160.3v28.8h-160.3c-19.6-0.1-38.6-7.4-54.5-18.7-4.3-3.1-8.3-6.4-12.1-10.1-10.3-9.9-18.5-21.9-23.2-35.4l-64.1-187.3v737.5c0 23.6 19.5 43 43.1 43.1h759.2c23.6-0.1 43.1-19.5 43.2-43.1z"/><path fill-rule="evenodd" class="b" d="m557.8 249.8h0.4v246.4h-0.5c-4.3 40.4-38.5 71.9-80.1 71.9-41.5 0-75.7-31.5-80-71.9h-0.5c0-0.1 0-8.6 0-8.6 0-0.1 0-230.9 0-231q0 0 0-0.1c0 0 0-6.6 0-6.7h0.4c3.4-41.3 37.9-73.8 80.1-73.8 42.2 0 76.8 32.5 80.2 73.8zm-131.4 0h102.5c-3.3-25.4-25-45-51.3-45-26.3 0-47.9 19.6-51.2 45zm102.2 246.4h-101.9c4.1 24.4 25.3 43.1 50.9 43.1 25.7 0 46.9-18.7 51-43.1zm0.8-217.6h-103.5v188.8h103.5z"/><path class="c" d="m502.8 350h-50.3v28.8h50.3z"/></svg>